<svg width="223" height="47" viewBox="0 0 223 47" fill="none" xmlns="http://www.w3.org/2000/svg">
<path d="M12.4069 43.4886C3.55037 51.1475 0.336322 41.699 0.0506283 36.1159C-2.15801 -7.04644 68.6171 -17.8549 71.3311 39.0507C71.474 40.6254 70.6377 43.8465 70.6377 43.8465C70.2806 45.2303 64.981 47.6861 62.0669 45.4528C58.4243 42.6612 59.4243 39.6233 54.7817 41.6991C51.0677 43.3597 48.9964 41.7706 48.4251 40.7685C45.6157 36.2829 39.862 24.9638 37.6908 21.5853C35.5195 18.2067 33.7863 20.1775 33.1911 21.5853L22.9061 40.7685C21.4062 42.2001 19.4778 41.3412 19.3349 40.7685C19.1921 40.1959 16.5494 36.3306 12.4069 43.4886Z" fill="#454545"/>
<path d="M80.2248 31.4699C79.8196 31.4699 79.5323 31.2047 79.3629 30.6743L75.2742 17.7231C75.1858 17.4432 75.2263 17.1632 75.3958 16.8833C75.5726 16.6034 75.8267 16.4634 76.1583 16.4634C76.3351 16.4634 76.5045 16.5223 76.6666 16.6402C76.8287 16.7507 76.9465 16.9275 77.0202 17.1706L80.6226 28.641H80.1364L83.5621 17.2811C83.6431 17.0159 83.7794 16.817 83.9709 16.6844C84.1698 16.5518 84.3724 16.4855 84.5787 16.4855C84.7997 16.4855 85.0134 16.5518 85.2196 16.6844C85.4259 16.817 85.5659 17.0159 85.6396 17.2811L89.0652 28.641H88.579L92.1814 17.1706C92.2625 16.9275 92.3767 16.7544 92.524 16.6512C92.6787 16.5407 92.8445 16.4855 93.0213 16.4855C93.3454 16.4855 93.6033 16.6107 93.7948 16.8612C93.9863 17.1117 94.0305 17.399 93.9274 17.7231L89.8387 30.6743C89.6619 31.2047 89.3378 31.4699 88.8663 31.4699H88.8221C88.3285 31.4699 88.0044 31.2047 87.8497 30.6743L84.2914 19.1597H84.7776L81.1973 30.6743C81.1236 30.9395 81.0131 31.1384 80.8658 31.271C80.7258 31.4036 80.5121 31.4699 80.2248 31.4699Z" fill="#454545"/>
<path d="M95.4244 31.3815C94.835 31.1531 94.6582 30.7479 94.894 30.166L100.154 17.2148C100.375 16.7286 100.721 16.4855 101.193 16.4855H101.237C101.716 16.5076 102.04 16.7507 102.209 17.2148L107.558 30.166C107.794 30.7479 107.624 31.1531 107.049 31.3815C106.467 31.6099 106.062 31.4404 105.834 30.8732L104.64 27.978H97.756L96.6178 30.8732C96.3895 31.4478 95.9917 31.6172 95.4244 31.3815ZM98.4854 26.1215H103.878L101.126 19.4249L98.4854 26.1215Z" fill="#454545"/>
<path d="M111.779 31.4699C111.161 31.4699 110.851 31.1605 110.851 30.5417V17.4137C110.851 16.7949 111.161 16.4855 111.779 16.4855C112.096 16.4855 112.406 16.6697 112.708 17.038L121.592 28.4863H121.128V17.4137C121.128 16.7949 121.438 16.4855 122.056 16.4855C122.675 16.4855 122.985 16.7949 122.985 17.4137V30.5417C122.985 31.1605 122.675 31.4699 122.056 31.4699C121.725 31.4699 121.415 31.2857 121.128 30.9174L112.244 19.4691H112.708V30.5417C112.708 31.1605 112.398 31.4699 111.779 31.4699Z" fill="#454545"/>
<path d="M128.506 31.4699C127.887 31.4699 127.578 31.1605 127.578 30.5417V17.4137C127.578 16.7949 127.887 16.4855 128.506 16.4855H133.833C135.755 16.4855 137.17 16.9422 138.076 17.8557C138.989 18.7619 139.446 20.1763 139.446 22.0991V25.8563C139.446 27.7791 138.993 29.1972 138.087 30.1107C137.188 31.0168 135.77 31.4699 133.833 31.4699H128.506ZM129.434 29.6134H133.833C134.775 29.6134 135.52 29.4992 136.065 29.2709C136.617 29.0351 137.008 28.6447 137.236 28.0995C137.472 27.547 137.59 26.7992 137.59 25.8563V22.0991C137.59 21.1635 137.472 20.4231 137.236 19.878C137.008 19.3254 136.617 18.9313 136.065 18.6956C135.52 18.4598 134.775 18.342 133.833 18.342H129.434V29.6134Z" fill="#454545"/>
<path d="M144.434 31.4699C143.816 31.4699 143.506 31.1605 143.506 30.5417V17.4137C143.506 16.7949 143.816 16.4855 144.434 16.4855H152.369C152.987 16.4855 153.297 16.7949 153.297 17.4137C153.297 18.0325 152.987 18.342 152.369 18.342H145.363V22.9832H149.761C150.38 22.9832 150.689 23.2926 150.689 23.9114C150.689 24.5302 150.38 24.8396 149.761 24.8396H145.363V29.6134H152.369C152.987 29.6134 153.297 29.9228 153.297 30.5417C153.297 31.1605 152.987 31.4699 152.369 31.4699H144.434Z" fill="#454545"/>
<path d="M166.459 31.5141C166.216 31.6688 165.984 31.7167 165.763 31.6578C165.542 31.5988 165.354 31.4478 165.199 31.2047L161.773 25.5027H158.679V30.5417C158.679 31.1605 158.37 31.4699 157.751 31.4699C157.132 31.4699 156.823 31.1605 156.823 30.5417V17.4137C156.823 16.7949 157.132 16.4855 157.751 16.4855H162.923C164.271 16.4855 165.302 16.8465 166.017 17.5684C166.739 18.283 167.1 19.3144 167.1 20.6626V21.3256C167.1 22.4969 166.827 23.4325 166.282 24.1324C165.737 24.8249 164.949 25.2559 163.917 25.4253L166.812 30.2544C167.092 30.77 166.975 31.19 166.459 31.5141ZM158.679 23.6462H162.923C163.763 23.6462 164.359 23.4694 164.713 23.1158C165.066 22.7621 165.243 22.1654 165.243 21.3256V20.6626C165.243 19.8301 165.066 19.237 164.713 18.8834C164.359 18.5224 163.763 18.342 162.923 18.342H158.679V23.6462Z" fill="#454545"/>
<path d="M171.564 31.4699C170.945 31.4699 170.636 31.1605 170.636 30.5417V17.4137C170.636 16.7949 170.945 16.4855 171.564 16.4855H176.736C178.084 16.4855 179.115 16.8465 179.83 17.5684C180.552 18.283 180.913 19.3144 180.913 20.6626V21.3256C180.913 22.6737 180.552 23.7088 179.83 24.4308C179.115 25.1454 178.084 25.5027 176.736 25.5027H172.492V30.5417C172.492 31.1605 172.183 31.4699 171.564 31.4699ZM172.492 23.6462H176.736C177.576 23.6462 178.172 23.4694 178.526 23.1158C178.88 22.7621 179.056 22.1654 179.056 21.3256V20.6626C179.056 19.8301 178.88 19.237 178.526 18.8834C178.172 18.5224 177.576 18.342 176.736 18.342H172.492V23.6462Z" fill="#454545"/>
<path d="M185.118 31.4699C184.499 31.4699 184.19 31.1605 184.19 30.5417V17.4137C184.19 16.7949 184.499 16.4855 185.118 16.4855C185.737 16.4855 186.046 16.7949 186.046 17.4137V29.6134H192.168C192.787 29.6134 193.097 29.9228 193.097 30.5417C193.097 31.1605 192.787 31.4699 192.168 31.4699H185.118Z" fill="#454545"/>
<path d="M195.44 31.3815C194.85 31.1531 194.674 30.7479 194.909 30.166L200.169 17.2148C200.39 16.7286 200.737 16.4855 201.208 16.4855H201.252C201.731 16.5076 202.055 16.7507 202.225 17.2148L207.573 30.166C207.809 30.7479 207.639 31.1531 207.065 31.3815C206.483 31.6099 206.078 31.4404 205.849 30.8732L204.656 27.978H197.771L196.633 30.8732C196.405 31.4478 196.007 31.6172 195.44 31.3815ZM198.501 26.1215H203.893L201.142 19.4249L198.501 26.1215Z" fill="#454545"/>
<path d="M211.795 31.4699C211.176 31.4699 210.867 31.1605 210.867 30.5417V17.4137C210.867 16.7949 211.176 16.4855 211.795 16.4855C212.112 16.4855 212.421 16.6697 212.723 17.038L221.608 28.4863H221.143V17.4137C221.143 16.7949 221.453 16.4855 222.072 16.4855C222.69 16.4855 223 16.7949 223 17.4137V30.5417C223 31.1605 222.69 31.4699 222.072 31.4699C221.74 31.4699 221.431 31.2857 221.143 30.9174L212.259 19.4691H212.723V30.5417C212.723 31.1605 212.414 31.4699 211.795 31.4699Z" fill="#454545"/>
</svg>
